<svg width="105" height="105" viewBox="0 0 105 105" fill="none" xmlns="http://www.w3.org/2000/svg">
<path id="Vector" d="M100.933 8.17453C98.6957 8.17464 96.8864 6.36533 96.8865 4.12795C96.8866 1.89057 98.6961 0.0811465 100.933 0.08104C103.171 0.0809336 104.98 1.89024 104.98 4.12762C104.98 6.36501 103.17 8.17443 100.933 8.17453ZM104.979 28.3302C104.979 26.0928 103.17 24.2836 100.932 24.2837C98.6949 24.2838 96.8855 26.0932 96.8854 28.3306C96.8853 30.568 98.6945 32.3772 100.932 32.3771C103.169 32.377 104.979 30.5676 104.979 28.3302ZM104.978 52.5328C104.978 50.2955 103.169 48.4862 100.931 48.4863C98.6938 48.4864 96.8843 50.2959 96.8842 52.5332C96.8841 54.7706 98.6934 56.5799 100.931 56.5798C103.168 56.5797 104.978 54.7702 104.978 52.5328ZM104.977 76.7355C104.977 74.4981 103.167 72.6889 100.93 72.689C98.6926 72.6891 96.8832 74.4985 96.8831 76.7359C96.883 78.9733 98.6922 80.7825 100.93 80.7824C103.167 80.7823 104.976 78.9729 104.977 76.7355ZM104.975 100.938C104.976 98.7008 103.166 96.8915 100.929 96.8916C98.6915 96.8917 96.882 98.7012 96.8819 100.939C96.8818 103.176 98.6911 104.985 100.928 104.985C103.166 104.985 104.975 103.176 104.975 100.938ZM80.7774 4.12874C80.7775 1.89136 78.9682 0.0820513 76.7308 0.0821578C74.4934 0.0822644 72.684 1.89171 72.6839 4.1291C72.6838 6.36648 74.4931 8.17579 76.7305 8.17568C78.9678 8.17558 80.7773 6.36613 80.7774 4.12874ZM80.7763 28.3314C80.7764 26.094 78.9671 24.2847 76.7297 24.2848C74.4923 24.2849 72.6828 26.0944 72.6827 28.3317C72.6826 30.5691 74.4919 32.3784 76.7293 32.3783C78.9667 32.3782 80.7762 30.5688 80.7763 28.3314ZM80.7751 52.534C80.7752 50.2966 78.9659 48.4874 76.7285 48.4875C74.4911 48.4876 72.6817 50.297 72.6816 52.5344C72.6815 54.7718 74.4907 56.581 76.7281 56.5809C78.9655 56.5808 80.7749 54.7714 80.7751 52.534ZM80.7739 76.7366C80.774 74.4993 78.9648 72.69 76.7274 72.6901C74.49 72.6902 72.6805 74.4997 72.6804 76.737C72.6803 78.9744 74.4896 80.7837 76.727 80.7836C78.9643 80.7835 80.7738 78.974 80.7739 76.7366ZM80.7728 100.939C80.7729 98.7019 78.9636 96.8927 76.7262 96.8928C74.4888 96.8929 72.6794 98.7023 72.6793 100.94C72.6792 103.177 74.4884 104.986 76.7258 104.986C78.9632 104.986 80.7726 103.177 80.7728 100.939ZM56.5748 4.12989C56.5749 1.89251 54.7656 0.0832004 52.5282 0.0833056C50.2908 0.0834108 48.4813 1.89287 48.4812 4.13025C48.4811 6.36763 50.2904 8.17694 52.5278 8.17683C54.7652 8.17673 56.5747 6.36727 56.5748 4.12989ZM56.5736 28.3325C56.5737 26.0952 54.7644 24.2859 52.527 24.286C50.2896 24.2861 48.4802 26.0955 48.4801 28.3329C48.48 30.5703 50.2893 32.3796 52.5267 32.3795C54.764 32.3794 56.5735 30.5699 56.5736 28.3325ZM56.5725 52.5352C56.5726 50.2978 54.7633 48.4885 52.5259 48.4886C50.2885 48.4887 48.479 50.2982 48.4789 52.5355C48.4788 54.7729 50.2881 56.5822 52.5255 56.5821C54.7629 56.582 56.5723 54.7726 56.5725 52.5352ZM56.5713 76.7378C56.5714 74.5004 54.7621 72.6911 52.5247 72.6913C50.2873 72.6914 48.4779 74.5008 48.4778 76.7382C48.4777 78.9756 50.2869 80.7848 52.5243 80.7847C54.7617 80.7846 56.5711 78.9752 56.5713 76.7378ZM56.5701 100.94C56.5702 98.7031 54.761 96.8938 52.5236 96.8939C50.2862 96.894 48.4767 98.7035 48.4766 100.941C48.4765 103.178 50.2858 104.987 52.5232 104.987C54.7605 104.987 56.5797 103.168 56.5701 100.94ZM32.3721 4.13104C32.3722 1.89366 30.5629 0.0843522 28.3255 0.0844574C26.0881 0.0845626 24.2787 1.89402 24.2786 4.1314C24.2785 6.36878 26.0878 8.17809 28.3252 8.17798C30.5625 8.17788 32.372 6.36842 32.3721 4.13104ZM32.371 28.3337C32.3711 26.0963 30.5618 24.287 28.3244 24.2871C26.087 24.2872 24.2775 26.0967 24.2774 28.334C24.2773 30.5714 26.0866 32.3807 28.324 32.3806C30.5614 32.3805 32.3708 30.5711 32.371 28.3337ZM32.3698 52.5363C32.3699 50.299 30.5606 48.4896 28.3232 48.4898C26.0858 48.4899 24.2764 50.2993 24.2763 52.5367C24.2762 54.7741 26.0855 56.5834 28.3229 56.5833C30.5602 56.5832 32.3697 54.7737 32.3698 52.5363ZM32.3687 76.739C32.3688 74.5016 30.5595 72.6923 28.3221 72.6924C26.0847 72.6925 24.2752 74.502 24.2751 76.7394C24.275 78.9767 26.0843 80.786 28.3217 80.7859C30.5591 80.7858 32.3783 78.9666 32.3687 76.739ZM32.3674 100.942C32.3676 98.7042 30.5583 96.895 28.3209 96.8951C26.0835 96.8952 24.2741 98.7046 24.274 100.942C24.2739 103.179 26.0831 104.989 28.3205 104.989C30.5579 104.988 32.3771 103.169 32.3674 100.942ZM8.16946 4.13219C8.16956 1.89481 6.36025 0.0854976 4.12287 0.0856053C1.88549 0.0857129 0.0760384 1.89516 0.0759307 4.13254C0.075823 6.36993 1.88513 8.17924 4.12252 8.17913C6.3599 8.17902 8.16935 6.36958 8.16946 4.13219ZM8.16831 28.3348C8.16841 26.0975 6.35911 24.2881 4.12172 24.2883C1.88434 24.2884 0.0748853 26.0978 0.0747774 28.3352C0.0746695 30.5726 1.88398 32.3819 4.12136 32.3818C6.35875 32.3817 8.1682 30.5722 8.16831 28.3348ZM8.16715 52.5375C8.16726 50.3001 6.35795 48.4908 4.12057 48.4909C1.88318 48.491 0.0737362 50.3005 0.0736283 52.5378C0.0735204 54.7752 1.88283 56.5845 4.12021 56.5844C6.3576 56.5843 8.17678 54.7651 8.16715 52.5375ZM8.166 76.7401C8.16611 74.5028 6.3568 72.6934 4.11942 72.6936C1.88203 72.6937 0.0725871 74.5031 0.0724792 76.7405C0.0723713 78.9779 1.88168 80.7872 4.11906 80.7871C6.35645 80.787 8.17563 78.9678 8.166 76.7401ZM8.17459 100.933C8.17469 98.6957 6.36539 96.8864 4.12801 96.8865C1.89063 96.8866 0.0811729 98.696 0.0810704 100.933C0.0809679 103.171 1.89027 104.98 4.12765 104.98C6.35531 104.99 8.17449 103.17 8.17459 100.933Z" fill="#052EFD"/>
</svg>
