<svg width="67" height="67" viewBox="0 0 67 67" fill="none" xmlns="http://www.w3.org/2000/svg">
<path id="Vector" d="M64.0681 5.64237C62.6589 5.64244 61.5192 4.50281 61.5193 3.09355C61.5194 1.68429 62.6591 0.544591 64.0683 0.544523C65.4776 0.544456 66.6172 1.68408 66.6172 3.09334C66.6171 4.5026 65.4774 5.6423 64.0681 5.64237ZM66.6164 18.3378C66.6165 16.9285 65.4769 15.789 64.0676 15.789C62.6584 15.7891 61.5187 16.9288 61.5186 18.3381C61.5185 19.7473 62.6581 20.8869 64.0674 20.8868C65.4766 20.8868 66.6164 19.7471 66.6164 18.3378ZM66.6157 33.5823C66.6158 32.1731 65.4762 31.0335 64.0669 31.0335C62.6576 31.0336 61.5179 32.1733 61.5179 33.5826C61.5178 34.9918 62.6574 36.1314 64.0667 36.1314C65.4759 36.1313 66.6156 34.9916 66.6157 33.5823ZM66.615 48.8268C66.615 47.4176 65.4754 46.278 64.0662 46.278C62.6569 46.2781 61.5172 47.4178 61.5171 48.8271C61.5171 50.2364 62.6567 51.3759 64.0659 51.3759C65.4752 51.3758 66.6149 50.2361 66.615 48.8268ZM66.6143 64.0713C66.6143 62.6621 65.4747 61.5225 64.0655 61.5226C62.6562 61.5226 61.5165 62.6623 61.5164 64.0716C61.5164 65.4809 62.6559 66.6205 64.0652 66.6204C65.4745 66.6203 66.6142 65.4806 66.6143 64.0713ZM51.3727 3.09405C51.3727 1.68479 50.2331 0.54516 48.8238 0.545228C47.4146 0.545295 46.2749 1.68501 46.2748 3.09427C46.2747 4.50353 47.4144 5.64316 48.8236 5.64309C50.2329 5.64302 51.3726 4.50331 51.3727 3.09405ZM51.3719 18.3386C51.372 16.9293 50.2324 15.7897 48.8231 15.7897C47.4139 15.7898 46.2741 16.9295 46.2741 18.3388C46.274 19.748 47.4136 20.8877 48.8229 20.8876C50.2322 20.8875 51.3719 19.7478 51.3719 18.3386ZM51.3712 33.583C51.3712 32.1738 50.2317 31.0342 48.8224 31.0343C47.4131 31.0343 46.2734 32.174 46.2734 33.5833C46.2733 34.9926 47.4129 36.1322 48.8221 36.1321C50.2314 36.132 51.3711 34.9923 51.3712 33.583ZM51.3705 48.8276C51.3705 47.4183 50.2309 46.2787 48.8217 46.2788C47.4124 46.2788 46.2727 47.4185 46.2726 48.8278C46.2726 50.2371 47.4122 51.3767 48.8214 51.3766C50.2307 51.3765 51.3704 50.2368 51.3705 48.8276ZM51.3697 64.0721C51.3698 62.6628 50.2302 61.5232 48.821 61.5233C47.4117 61.5233 46.272 62.6631 46.2719 64.0723C46.2718 65.4816 47.4114 66.6212 48.8207 66.6211C50.2299 66.621 51.3697 65.4813 51.3697 64.0721ZM36.1282 3.09477C36.1282 1.68551 34.9886 0.545885 33.5793 0.545951C32.1701 0.546017 31.0304 1.68574 31.0303 3.095C31.0302 4.50426 32.1698 5.64388 33.5791 5.64382C34.9884 5.64375 36.1281 4.50403 36.1282 3.09477ZM36.1274 18.3393C36.1275 16.93 34.9879 15.7904 33.5786 15.7905C32.1693 15.7905 31.0296 16.9303 31.0296 18.3395C31.0295 19.7488 32.1691 20.8884 33.5784 20.8883C34.9876 20.8883 36.1274 19.7485 36.1274 18.3393ZM36.1267 33.5838C36.1268 32.1745 34.9871 31.0349 33.5779 31.035C32.1686 31.035 31.0289 32.1748 31.0288 33.584C31.0288 34.9933 32.1684 36.1329 33.5777 36.1328C34.9869 36.1328 36.1266 34.9931 36.1267 33.5838ZM36.1259 48.8283C36.126 47.419 34.9864 46.2794 33.5772 46.2795C32.1679 46.2796 31.0282 47.4193 31.0281 48.8285C31.028 50.2378 32.1676 51.3774 33.5769 51.3773C34.9862 51.3773 36.1259 50.2375 36.1259 48.8283ZM36.1252 64.0728C36.1253 62.6635 34.9857 61.5239 33.5764 61.524C32.1672 61.5241 31.0275 62.6638 31.0274 64.073C31.0273 65.4823 32.1669 66.6219 33.5762 66.6218C34.9854 66.6218 36.1313 65.4759 36.1252 64.0728ZM20.8836 3.0955C20.8837 1.68624 19.7441 0.546609 18.3348 0.546676C16.9256 0.546743 15.7858 1.68646 15.7858 3.09572C15.7857 4.50498 16.9253 5.64461 18.3346 5.64454C19.7439 5.64447 20.8836 4.50476 20.8836 3.0955ZM20.8829 18.34C20.883 16.9308 19.7434 15.7911 18.3341 15.7912C16.9248 15.7913 15.7851 16.931 15.7851 18.3402C15.785 19.7495 16.9246 20.8891 18.3339 20.8891C19.7431 20.889 20.8829 19.7493 20.8829 18.34ZM20.8822 33.5845C20.8823 32.1753 19.7426 31.0356 18.3334 31.0357C16.9241 31.0358 15.7844 32.1755 15.7843 33.5847C15.7843 34.994 16.9239 36.1336 18.3331 36.1336C19.7424 36.1335 20.8821 34.9938 20.8822 33.5845ZM20.8815 48.829C20.8815 47.4198 19.7419 46.2801 18.3326 46.2802C16.9234 46.2803 15.7837 47.42 15.7836 48.8293C15.7835 50.2385 16.9232 51.3781 18.3324 51.3781C19.7417 51.378 20.8875 50.2322 20.8815 48.829ZM20.8807 64.0735C20.8808 62.6643 19.7412 61.5247 18.3319 61.5247C16.9227 61.5248 15.7829 62.6645 15.7829 64.0738C15.7828 65.483 16.9224 66.6226 18.3317 66.6226C19.7409 66.6225 20.8868 65.4766 20.8807 64.0735ZM5.63913 3.09622C5.63919 1.68696 4.49956 0.547333 3.09031 0.5474C1.68105 0.547466 0.541328 1.68718 0.541261 3.09644C0.541194 4.5057 1.68082 5.64533 3.09008 5.64526C4.49934 5.6452 5.63906 4.50548 5.63913 3.09622ZM5.6384 18.3407C5.63847 16.9315 4.49884 15.7918 3.08958 15.7919C1.68032 15.792 0.540602 16.9317 0.540535 18.341C0.540468 19.7502 1.6801 20.8898 3.08936 20.8898C4.49862 20.8897 5.63834 19.75 5.6384 18.3407ZM5.63768 33.5852C5.63775 32.176 4.49812 31.0364 3.08886 31.0364C1.6796 31.0365 0.539878 32.1762 0.539811 33.5855C0.539745 34.9947 1.67937 36.1344 3.08863 36.1343C4.49789 36.1342 5.64374 34.9884 5.63768 33.5852ZM5.63695 48.8298C5.63702 47.4205 4.49739 46.2809 3.08813 46.2809C1.67887 46.281 0.539157 47.4207 0.53909 48.83C0.539022 50.2392 1.67865 51.3789 3.08791 51.3788C4.49717 51.3787 5.64301 50.2329 5.63695 48.8298ZM5.64237 64.0681C5.64243 62.6589 4.5028 61.5192 3.09354 61.5193C1.68429 61.5194 0.544566 62.6591 0.544498 64.0684C0.544431 65.4776 1.68406 66.6173 3.09332 66.6172C4.49645 66.6232 5.6423 65.4774 5.64237 64.0681Z" fill="white"/>
</svg>
