<svg aria-hidden="true" style="position:absolute;width:0;height:0;overflow:hidden" xmlns="http://www.w3.org/2000/svg">
    <defs>
        <symbol id="arrow" viewBox="0 0 14 17">
            <path d="M0 7.72559C0 7.34589 0.282154 7.0321 0.648229 6.98243L0.75 6.97559L15.75 6.97559C16.1642 6.97559 16.5 7.31137 16.5 7.72559C16.5 8.10528 16.2178 8.41908 15.8518 8.46874L15.75 8.47559L0.75 8.47559C0.335786 8.47559 0 8.1398 0 7.72559Z" fill="white"/>
            <path d="M9.17101 2.23271C8.87749 1.94045 8.87646 1.46558 9.16872 1.17206C9.43442 0.905218 9.85103 0.880116 10.1451 1.09734L10.2294 1.16977L16.2794 7.19377C16.547 7.46026 16.5714 7.87837 16.3524 8.17245L16.2794 8.25667L10.2294 14.2817C9.93593 14.574 9.46105 14.573 9.16877 14.2795C8.90305 14.0127 8.87971 13.5959 9.09817 13.3028L9.17096 13.2188L14.687 7.72494L9.17101 2.23271Z" fill="white"/>
        </symbol>
        <symbol id="air" viewBox="0 0 153 48">
            <path d="M80.7354 12.0601C80.7354 13.7898 79.3476 15.1832 77.6247 15.1832C75.9018 15.1832 74.514 13.7898 74.514 12.0601C74.514 10.3303 75.854 8.93694 77.6247 8.93694C79.3954 8.98498 80.7354 10.3784 80.7354 12.0601ZM67.9096 18.3544C67.9096 18.6426 67.9096 19.1231 67.9096 19.1231C67.9096 19.1231 66.4261 17.2012 63.2675 17.2012C58.051 17.2012 53.9832 21.1892 53.9832 26.7147C53.9832 32.1922 58.0032 36.2282 63.2675 36.2282C66.4739 36.2282 67.9096 34.2583 67.9096 34.2583V35.0751C67.9096 35.4595 68.1968 35.7477 68.5797 35.7477H72.4561V17.6817C72.4561 17.6817 68.9147 17.6817 68.5797 17.6817C68.1968 17.6817 67.9096 18.018 67.9096 18.3544ZM67.9096 29.9339C67.1918 30.991 65.7561 31.9039 64.0332 31.9039C60.9703 31.9039 58.6253 29.982 58.6253 26.7147C58.6253 23.4474 60.9703 21.5255 64.0332 21.5255C65.7082 21.5255 67.2396 22.4865 67.9096 23.4955V29.9339ZM75.3275 17.6817H79.9219V35.7477H75.3275V17.6817ZM143.955 17.2012C140.796 17.2012 139.313 19.1231 139.313 19.1231V8.98499H134.719V35.7477C134.719 35.7477 138.26 35.7477 138.595 35.7477C138.978 35.7477 139.265 35.4114 139.265 35.0751V34.2583C139.265 34.2583 140.749 36.2282 143.907 36.2282C149.124 36.2282 153.192 32.1922 153.192 26.7147C153.192 21.2372 149.124 17.2012 143.955 17.2012ZM143.189 31.8559C141.419 31.8559 140.031 30.9429 139.313 29.8859V23.4474C140.031 22.4865 141.562 21.4775 143.189 21.4775C146.252 21.4775 148.597 23.3994 148.597 26.6667C148.597 29.9339 146.252 31.8559 143.189 31.8559ZM132.326 25.033V35.7958H127.731V25.5616C127.731 22.5826 126.774 21.3814 124.19 21.3814C122.802 21.3814 121.366 22.1021 120.457 23.1592V35.7477H115.863V17.6817H119.5C119.883 17.6817 120.17 18.018 120.17 18.3544V19.1231C121.51 17.7297 123.281 17.2012 125.051 17.2012C127.061 17.2012 128.736 17.7778 130.076 18.9309C131.704 20.2763 132.326 22.006 132.326 25.033ZM104.712 17.2012C101.553 17.2012 100.07 19.1231 100.07 19.1231V8.98499H95.4755V35.7477C95.4755 35.7477 99.017 35.7477 99.352 35.7477C99.7348 35.7477 100.022 35.4114 100.022 35.0751V34.2583C100.022 34.2583 101.506 36.2282 104.664 36.2282C109.881 36.2282 113.948 32.1922 113.948 26.7147C113.996 21.2372 109.928 17.2012 104.712 17.2012ZM103.946 31.8559C102.176 31.8559 100.788 30.9429 100.07 29.8859V23.4474C100.788 22.4865 102.319 21.4775 103.946 21.4775C107.009 21.4775 109.354 23.3994 109.354 26.6667C109.354 29.9339 107.009 31.8559 103.946 31.8559ZM91.5033 17.2012C92.8912 17.2012 93.6091 17.4414 93.6091 17.4414V21.7177C93.6091 21.7177 89.7805 20.4204 87.3876 23.1592V35.7958H82.7933V17.6817C82.7933 17.6817 86.3347 17.6817 86.6697 17.6817C87.0526 17.6817 87.3398 18.018 87.3398 18.3544V19.1231C88.2012 18.1141 90.0676 17.2012 91.5033 17.2012ZM43.7895 34.1141C43.5502 33.5375 43.311 32.9129 43.0717 32.3844C42.6888 31.5195 42.3059 30.7027 41.9709 29.9339L41.9231 29.8859C38.6209 22.6787 35.0795 15.3754 31.3466 8.16817L31.203 7.87988C30.8202 7.15916 30.4373 6.39039 30.0545 5.62162C29.5759 4.75676 29.0973 3.84384 28.3316 2.97898C26.8002 1.05706 24.5987 0 22.2537 0C19.8608 0 17.7073 1.05706 16.128 2.88288C15.4101 3.74775 14.8837 4.66066 14.4051 5.52553C14.0222 6.29429 13.6394 7.06306 13.2565 7.78378L13.1129 8.07207C9.42793 15.2793 5.83862 22.5826 2.53646 29.7898L2.4886 29.8859C2.1536 30.6547 1.77074 31.4715 1.38789 32.3363C1.1486 32.8649 0.909311 33.4414 0.670024 34.0661C0.0478782 35.8438 -0.143551 37.5255 0.0957356 39.2553C0.622167 42.8589 3.01504 45.8859 6.3172 47.2312C7.56149 47.7598 8.85364 48 10.1936 48C10.5765 48 11.0551 47.952 11.4379 47.9039C13.0172 47.7117 14.6444 47.1832 16.2237 46.2703C18.1858 45.1652 20.0523 43.5796 22.158 41.2733C24.2637 43.5796 26.178 45.1652 28.0923 46.2703C29.6716 47.1832 31.2987 47.7117 32.878 47.9039C33.2609 47.952 33.7395 48 34.1223 48C35.4623 48 36.8023 47.7598 37.9988 47.2312C41.3488 45.8859 43.6938 42.8108 44.2202 39.2553C44.6031 37.5736 44.4117 35.8919 43.7895 34.1141ZM22.2058 36.6126C19.6216 33.3453 17.9465 30.2703 17.3723 27.6757C17.133 26.5706 17.0851 25.6096 17.2287 24.7447C17.3244 23.976 17.6115 23.3033 17.9944 22.7267C18.9037 21.4294 20.4351 20.6126 22.2058 20.6126C23.9766 20.6126 25.5559 21.3814 26.4173 22.7267C26.8002 23.3033 27.0873 23.976 27.183 24.7447C27.3266 25.6096 27.2787 26.6186 27.0394 27.6757C26.4652 30.2222 24.7901 33.2973 22.2058 36.6126ZM41.3009 38.8709C40.9659 41.3694 39.2909 43.5315 36.9459 44.4925C35.7973 44.973 34.5531 45.1171 33.3088 44.973C32.1123 44.8288 30.9159 44.4444 29.6716 43.7237C27.9487 42.7628 26.2259 41.2733 24.2159 39.0631C27.3744 35.1712 29.2887 31.6156 30.0066 28.4444C30.3416 26.955 30.3895 25.6096 30.2459 24.3604C30.0545 23.1592 29.6237 22.0541 28.9537 21.0931C27.4702 18.9309 24.9816 17.6817 22.2058 17.6817C19.4301 17.6817 16.9415 18.979 15.458 21.0931C14.788 22.0541 14.3572 23.1592 14.1658 24.3604C13.9744 25.6096 14.0222 27.003 14.4051 28.4444C15.123 31.6156 17.0851 35.2192 20.1958 39.1111C18.2337 41.3213 16.463 42.8108 14.7401 43.7718C13.4958 44.4925 12.2994 44.8769 11.1029 45.021C9.81079 45.1652 8.56649 44.973 7.46577 44.5405C5.12076 43.5796 3.44575 41.4174 3.11075 38.9189C2.96718 37.7177 3.06289 36.5165 3.54147 35.1712C3.68504 34.6907 3.92433 34.2102 4.16361 33.6336C4.49861 32.8649 4.88147 32.048 5.26433 31.2312L5.31219 31.1351C8.61435 23.976 12.1558 16.6727 15.8408 9.56156L15.9844 9.27327C16.3672 8.55255 16.7501 7.78378 17.133 7.06306C17.5158 6.29429 17.9465 5.57357 18.473 4.94895C19.478 3.7958 20.818 3.17117 22.3016 3.17117C23.7851 3.17117 25.1251 3.7958 26.1302 4.94895C26.6566 5.57357 27.0873 6.29429 27.4702 7.06306C27.853 7.78378 28.2359 8.55255 28.6187 9.27327L28.7623 9.56156C32.3995 16.7207 35.9409 24.024 39.2431 31.1832V31.2312C39.6259 32 39.9609 32.8649 40.3438 33.6336C40.5831 34.2102 40.8224 34.6907 40.9659 35.1712C41.3488 36.4204 41.4924 37.6216 41.3009 38.8709Z" fill="#404C55"/>
       </symbol>
       <symbol id="google" viewBox="0 0 146 48">
            <path d="M142.268 29.3348L146.326 32.0402C145.009 33.9803 141.859 37.3086 136.412 37.3086C129.649 37.3086 124.612 32.0758 124.612 25.4191C124.612 18.3353 129.702 13.5297 135.843 13.5297C142.019 13.5297 145.045 18.4421 146.024 21.0941L146.558 22.4468L130.646 29.0322C131.856 31.4173 133.743 32.6276 136.412 32.6276C139.082 32.6276 140.933 31.3105 142.268 29.3348ZM129.791 25.0454L140.417 20.6313C139.83 19.154 138.086 18.1039 136.003 18.1039C133.351 18.1039 129.667 20.4533 129.791 25.0454Z" fill="#404C55"/>
            <path d="M116.941 1.40881H122.067V36.2229H116.941V1.40881Z" fill="#404C55"/>
            <path d="M108.86 14.4553H113.808V35.6C113.808 44.3747 108.629 47.9879 102.506 47.9879C96.7394 47.9879 93.2687 44.1078 91.9694 40.9574L96.508 39.0708C97.3268 41.0108 99.3024 43.3068 102.506 43.3068C106.44 43.3068 108.86 40.8684 108.86 36.312V34.6033H108.682C107.508 36.0272 105.265 37.3087 102.417 37.3087C96.4724 37.3087 91.026 32.1293 91.026 25.4548C91.026 18.7448 96.4724 13.512 102.417 13.512C105.247 13.512 107.508 14.7757 108.682 16.164H108.86V14.4553ZM109.216 25.4548C109.216 21.2544 106.422 18.193 102.862 18.193C99.2668 18.193 96.241 21.2544 96.241 25.4548C96.241 29.6019 99.2668 32.6099 102.862 32.6099C106.422 32.6277 109.216 29.6019 109.216 25.4548Z" fill="#404C55"/>
            <path d="M62.8865 25.3658C62.8865 32.2182 57.5469 37.2552 50.997 37.2552C44.4471 37.2552 39.1075 32.2004 39.1075 25.3658C39.1075 18.4777 44.4471 13.4585 50.997 13.4585C57.5469 13.4585 62.8865 18.4777 62.8865 25.3658ZM57.6893 25.3658C57.6893 21.0941 54.5923 18.1573 50.997 18.1573C47.4017 18.1573 44.3047 21.0941 44.3047 25.3658C44.3047 29.6018 47.4017 32.5742 50.997 32.5742C54.5923 32.5742 57.6893 29.6018 57.6893 25.3658Z" fill="#404C55"/>
            <path d="M88.8546 25.4191C88.8546 32.2716 83.515 37.3086 76.9651 37.3086C70.4153 37.3086 65.0757 32.2716 65.0757 25.4191C65.0757 18.5311 70.4153 13.5297 76.9651 13.5297C83.515 13.5297 88.8546 18.5133 88.8546 25.4191ZM83.6396 25.4191C83.6396 21.1475 80.5427 18.2107 76.9474 18.2107C73.352 18.2107 70.2551 21.1475 70.2551 25.4191C70.2551 29.6552 73.352 32.6276 76.9474 32.6276C80.5605 32.6276 83.6396 29.6374 83.6396 25.4191Z" fill="#404C55"/>
            <path d="M19.5647 32.0937C12.1071 32.0937 6.26912 26.0777 6.26912 18.6201C6.26912 11.1625 12.1071 5.14658 19.5647 5.14658C23.5872 5.14658 26.5239 6.73065 28.6954 8.75969L32.2729 5.18217C29.2471 2.281 25.2068 0.0739746 19.5647 0.0739746C9.34828 0.0739746 0.751556 8.40372 0.751556 18.6201C0.751556 28.8365 9.34828 37.1663 19.5647 37.1663C25.0822 37.1663 29.2471 35.3508 32.5043 31.9691C35.8504 28.6229 36.8827 23.9241 36.8827 20.1152C36.8827 18.9227 36.7403 17.6946 36.5801 16.7869H19.5647V21.7349H31.6855C31.3296 24.8318 30.3506 26.9499 28.9089 28.3916C27.1647 30.1536 24.4059 32.0937 19.5647 32.0937Z" fill="#404C55"/>
       </symbol>
       <symbol id="slack" viewBox="0 0 ">
        <path d="M60.4556 37.6064L62.7989 32.1638C65.3312 34.0536 68.695 35.0363 72.0209 35.0363C74.4776 35.0363 76.0272 34.0914 76.0272 32.6552C75.9894 28.6489 61.3249 31.7859 61.2115 21.7323C61.1737 16.63 65.7091 12.6993 72.1343 12.6993C75.9516 12.6993 79.769 13.6442 82.4902 15.7985L80.2981 21.3544C77.8036 19.767 74.7044 18.6331 71.7564 18.6331C69.7532 18.6331 68.4304 19.578 68.4304 20.7875C68.4682 24.7182 83.2461 22.5638 83.3973 32.1638C83.3973 37.3796 78.9753 41.0457 72.6257 41.0457C67.9768 41.0457 63.706 39.9497 60.4556 37.6064ZM150.371 30.1985C149.199 32.2394 147.007 33.6379 144.474 33.6379C140.733 33.6379 137.709 30.6142 137.709 26.8725C137.709 23.1308 140.733 20.1072 144.474 20.1072C147.007 20.1072 149.199 21.5056 150.371 23.5465L156.834 19.956C154.415 15.6473 149.766 12.6993 144.474 12.6993C136.651 12.6993 130.301 19.0489 130.301 26.8725C130.301 34.6961 136.651 41.0457 144.474 41.0457C149.804 41.0457 154.415 38.1355 156.834 33.789L150.371 30.1985ZM86.6477 0.944946H94.7359V40.5166H86.6477V0.944946ZM160.008 0.944946V40.5166H168.097V28.6489L177.697 40.5166H188.052L175.845 26.419L187.145 13.2662H177.243L168.097 24.189V0.944946H160.008ZM118.774 30.2741C117.602 32.2016 115.183 33.6379 112.462 33.6379C108.72 33.6379 105.697 30.6142 105.697 26.8725C105.697 23.1308 108.72 20.1072 112.462 20.1072C115.183 20.1072 117.602 21.619 118.774 23.5843V30.2741ZM118.774 13.2662V16.4788C117.451 14.2489 114.163 12.6993 110.723 12.6993C103.618 12.6993 98.0241 18.9733 98.0241 26.8347C98.0241 34.6961 103.618 41.0457 110.723 41.0457C114.163 41.0457 117.451 39.4961 118.774 37.2662V40.4788H126.862V13.2662H118.774Z" fill="#404C55"/>
<path d="M10.4524 30.2363C10.4524 32.9953 8.22251 35.2253 5.46346 35.2253C2.7044 35.2253 0.47448 32.9953 0.47448 30.2363C0.47448 27.4772 2.7044 25.2473 5.46346 25.2473H10.4524V30.2363ZM12.9469 30.2363C12.9469 27.4772 15.1768 25.2473 17.9359 25.2473C20.695 25.2473 22.9249 27.4772 22.9249 30.2363V42.7087C22.9249 45.4678 20.695 47.6977 17.9359 47.6977C15.1768 47.6977 12.9469 45.4678 12.9469 42.7087V30.2363Z" fill="#404C55"/>
<path d="M17.9359 10.2048C15.1768 10.2048 12.9469 7.97484 12.9469 5.21578C12.9469 2.45673 15.1768 0.226807 17.9359 0.226807C20.695 0.226807 22.9249 2.45673 22.9249 5.21578V10.2048H17.9359ZM17.9359 12.737C20.695 12.737 22.9249 14.967 22.9249 17.726C22.9249 20.4851 20.695 22.715 17.9359 22.715H5.42566C2.6666 22.715 0.436684 20.4851 0.436684 17.726C0.436684 14.967 2.6666 12.737 5.42566 12.737H17.9359Z" fill="#404C55"/>
<path d="M37.9296 17.726C37.9296 14.967 40.1595 12.737 42.9186 12.737C45.6776 12.737 47.9076 14.967 47.9076 17.726C47.9076 20.4851 45.6776 22.715 42.9186 22.715H37.9296V17.726ZM35.4351 17.726C35.4351 20.4851 33.2052 22.715 30.4461 22.715C27.6871 22.715 25.4572 20.4851 25.4572 17.726V5.21578C25.4572 2.45673 27.6871 0.226807 30.4461 0.226807C33.2052 0.226807 35.4351 2.45673 35.4351 5.21578V17.726Z" fill="#404C55"/>
<path d="M30.4461 37.7198C33.2052 37.7198 35.4351 39.9497 35.4351 42.7087C35.4351 45.4678 33.2052 47.6977 30.4461 47.6977C27.6871 47.6977 25.4572 45.4678 25.4572 42.7087V37.7198H30.4461ZM30.4461 35.2253C27.6871 35.2253 25.4572 32.9953 25.4572 30.2363C25.4572 27.4772 27.6871 25.2473 30.4461 25.2473H42.9564C45.7154 25.2473 47.9454 27.4772 47.9454 30.2363C47.9454 32.9953 45.7154 35.2253 42.9564 35.2253H30.4461Z" fill="#404C55"/>

       </symbol>
        <symbol id="netflix" viewBox="0 0 ">
        <path d="M25.1391 44.9061C22.4698 45.3752 19.7536 45.5159 16.9438 45.8905L8.37344 20.7657V46.9689C5.70415 47.25 3.26898 47.625 0.740051 48V0H7.85861L17.5993 27.2348V0H25.1391V44.9061ZM39.8911 17.5781C42.7948 17.5781 47.2437 17.4375 49.913 17.4375V24.9373C46.5879 24.9373 42.7011 24.9373 39.8911 25.078V36.2344C44.2934 35.9533 48.6955 35.5779 53.1443 35.4373V42.6556L32.3979 44.2966V0H53.1443V7.50001H39.8911V17.5781ZM81.0089 7.50018H73.235V42.0001C70.706 42.0001 68.1771 42.0001 65.7423 42.0936V7.50018H57.9684V0H81.0092L81.0089 7.50018ZM93.1849 17.0627H103.441V24.5625H93.1849V41.5783H85.8319V0H106.766V7.50001H93.1849V17.0627ZM118.942 35.0156C123.204 35.1091 127.512 35.4378 131.68 35.6718V43.0781C124.984 42.6559 118.287 42.2346 111.449 42.0936V0H118.942V35.0156ZM138.003 43.5938C140.391 43.7346 142.92 43.8753 145.355 44.1561V0H138.003V43.5938ZM178.184 0L168.677 22.8282L178.184 48C175.374 47.625 172.564 47.1093 169.754 46.6405L164.369 32.7658L158.89 45.5159C156.173 45.0467 153.551 44.9061 150.835 44.5311L160.482 22.5467L151.771 0H159.826L164.743 12.6094L169.989 0H178.184V0Z" fill="#404C55"/>

       </symbol>
        <symbol id="amazon" viewBox="0 0 ">
    <path fill-rule="evenodd" clip-rule="evenodd" d="M99.4628 37.5375C90.1958 44.3599 76.7639 48 65.1993 48C48.9838 48 34.3857 42.0095 23.3416 32.0462C22.4739 31.2627 23.2514 30.195 24.2926 30.8051C36.2113 37.7316 50.9482 41.8986 66.1711 41.8986C76.4376 41.8986 87.7316 39.777 98.1161 35.3742C99.6849 34.7086 100.997 36.4004 99.4628 37.5375Z" fill="#404C55"/>
<path fill-rule="evenodd" clip-rule="evenodd" d="M103.315 33.1348C102.135 31.6233 95.4851 32.4206 92.5003 32.7743C91.5909 32.8852 91.4521 32.0948 92.2712 31.5262C97.5676 27.803 106.258 28.8777 107.272 30.1257C108.285 31.3806 107.008 40.0821 102.031 44.2352C101.267 44.873 100.539 44.5333 100.879 43.6874C101.996 40.9002 104.502 34.6532 103.315 33.1348Z" fill="#404C55"/>
<path fill-rule="evenodd" clip-rule="evenodd" d="M92.7085 5.24172V1.62248C92.7085 1.07475 93.125 0.707275 93.6248 0.707275H109.847C110.368 0.707275 110.784 1.08168 110.784 1.62248V4.72172C110.777 5.24172 110.34 5.9212 109.563 6.99587L101.156 18.9837C104.28 18.9075 107.577 19.372 110.41 20.9667C111.048 21.3272 111.222 21.8542 111.27 22.3742V26.2361C111.27 26.763 110.687 27.3801 110.076 27.0612C105.085 24.4473 98.4561 24.163 92.9376 27.0889C92.3753 27.394 91.7853 26.7838 91.7853 26.2569V22.5891C91.7853 21.9998 91.7922 20.9944 92.3823 20.1L102.121 6.15H93.6456C93.125 6.15 92.7085 5.78253 92.7085 5.24172Z" fill="#404C55"/>
<path fill-rule="evenodd" clip-rule="evenodd" d="M33.5317 27.8237H28.5963C28.1242 27.7891 27.7494 27.4355 27.7147 26.9848V1.68483C27.7147 1.17869 28.1381 0.776549 28.6657 0.776549H33.2679C33.7469 0.797335 34.1287 1.16482 34.1634 1.62242V4.92966H34.2536C35.4545 1.73336 37.7105 0.242676 40.7509 0.242676C43.8399 0.242676 45.7697 1.73336 47.158 4.92966C48.352 1.73336 51.0661 0.242676 53.9746 0.242676C56.0432 0.242676 58.3062 1.09548 59.6875 3.0091C61.2494 5.13766 60.9301 8.22995 60.9301 10.9409L60.9231 26.9085C60.9231 27.4147 60.4997 27.8237 59.9721 27.8237H55.0436C54.5508 27.7891 54.1551 27.3939 54.1551 26.9085V13.4993C54.1551 12.4316 54.2523 9.76917 54.0163 8.75689C53.6484 7.05821 52.5447 6.5798 51.1147 6.5798C49.9207 6.5798 48.6713 7.37715 48.1645 8.65289C47.6578 9.92864 47.7064 12.0641 47.7064 13.4993V26.9085C47.7064 27.4147 47.283 27.8237 46.7554 27.8237H41.8269C41.3271 27.7891 40.9384 27.3939 40.9384 26.9085L40.9314 13.4993C40.9314 10.6774 41.3965 6.52434 37.891 6.52434C34.3439 6.52434 34.4827 10.5734 34.4827 13.4993V26.9085C34.4827 27.4147 34.0593 27.8237 33.5317 27.8237" fill="#404C55"/>
<path fill-rule="evenodd" clip-rule="evenodd" d="M124.751 0.242676C132.074 0.242676 136.038 6.52434 136.038 14.5116C136.038 22.2285 131.658 28.3507 124.751 28.3507C117.559 28.3507 113.644 22.069 113.644 14.2412C113.644 6.36487 117.608 0.242676 124.751 0.242676ZM124.792 5.40806C121.155 5.40806 120.926 10.3585 120.926 13.4439C120.926 16.5362 120.877 23.1368 124.751 23.1368C128.576 23.1368 128.756 17.8119 128.756 14.5671C128.756 12.4316 128.666 9.88011 128.02 7.85555C127.465 6.09447 126.361 5.40806 124.792 5.40806Z" fill="#404C55"/>
<path fill-rule="evenodd" clip-rule="evenodd" d="M145.534 27.8237H140.619C140.126 27.7891 139.731 27.3939 139.731 26.9085L139.724 1.60162C139.765 1.13708 140.175 0.776549 140.675 0.776549H145.249C145.68 0.797335 146.034 1.08855 146.131 1.48376V5.35259H146.221C147.602 1.89283 149.539 0.242676 152.947 0.242676C155.162 0.242676 157.321 1.04002 158.709 3.22404C160 5.24859 160 8.65289 160 11.1004V27.0264C159.944 27.4701 159.535 27.8237 159.049 27.8237H154.1C153.648 27.7891 153.274 27.4563 153.225 27.0264V13.2844C153.225 10.518 153.544 6.46887 150.136 6.46887C148.935 6.46887 147.831 7.27315 147.283 8.49342C146.589 10.0396 146.499 11.5788 146.499 13.2844V26.9085C146.492 27.4147 146.061 27.8237 145.534 27.8237" fill="#404C55"/>
<path fill-rule="evenodd" clip-rule="evenodd" d="M79.7765 15.7388C79.7765 17.6594 79.8251 19.261 78.8533 20.9666C78.0689 22.3533 76.8194 23.2061 75.438 23.2061C73.543 23.2061 72.4323 21.764 72.4323 19.6354C72.4323 15.4338 76.2016 14.6711 79.7765 14.6711V15.7388ZM84.7536 27.7544C84.4274 28.0456 83.9553 28.0664 83.5874 27.8723C81.9492 26.5133 81.6507 25.8824 80.7553 24.5859C78.0481 27.3454 76.1253 28.1704 72.6198 28.1704C68.4618 28.1704 65.2339 25.612 65.2339 20.4882C65.2339 16.4876 67.3997 13.7628 70.4957 12.4316C73.1751 11.2529 76.9166 11.0449 79.7765 10.719V10.0812C79.7765 8.90943 79.8668 7.52274 79.1726 6.51047C78.5756 5.60219 77.4233 5.22779 76.4029 5.22779C74.5218 5.22779 72.8488 6.19153 72.4393 8.18835C72.356 8.63209 72.0297 9.0689 71.5785 9.0897L66.7958 8.57662C66.3932 8.48649 65.942 8.16062 66.06 7.54355C67.1568 1.74722 72.4046 0 77.0971 0C79.4989 0 82.6364 0.637875 84.5315 2.45443C86.9333 4.69392 86.7042 7.68221 86.7042 10.934V18.6162C86.7042 20.925 87.6621 21.9373 88.5645 23.1853C88.8769 23.629 88.9463 24.1629 88.5437 24.4957C87.5372 25.3347 85.7462 26.8947 84.7605 27.7683L84.7536 27.7544" fill="#404C55"/>
<path fill-rule="evenodd" clip-rule="evenodd" d="M15.0741 15.7388C15.0741 17.6594 15.1227 19.261 14.1509 20.9666C13.3665 22.3533 12.124 23.2061 10.7356 23.2061C8.8406 23.2061 7.73689 21.764 7.73689 19.6354C7.73689 15.4338 11.5062 14.6711 15.0741 14.6711V15.7388ZM20.0512 27.7544C19.725 28.0456 19.2529 28.0664 18.885 27.8723C17.2468 26.5133 16.9553 25.8824 16.0529 24.5859C13.3457 27.3454 11.4298 28.1704 7.91737 28.1704C3.76632 28.1704 0.531555 25.612 0.531555 20.4882C0.531555 16.4876 2.70426 13.7628 5.79326 12.4316C8.4727 11.2529 12.2142 11.0449 15.0741 10.719V10.0812C15.0741 8.90943 15.1644 7.52274 14.4771 6.51047C13.8732 5.60219 12.7209 5.22779 11.7075 5.22779C9.8263 5.22779 8.14644 6.19153 7.73689 8.18835C7.65359 8.63209 7.32734 9.0689 6.88308 9.0897L2.09341 8.57662C1.69079 8.48649 1.24653 8.16062 1.3576 7.54355C2.46131 1.74722 7.70218 0 12.3947 0C14.7965 0 17.934 0.637875 19.8291 2.45443C22.2309 4.69392 22.0018 7.68221 22.0018 10.934V18.6162C22.0018 20.925 22.9597 21.9373 23.8621 23.1853C24.1814 23.629 24.2509 24.1629 23.8482 24.4957C22.8417 25.3347 21.0508 26.8947 20.0651 27.7683L20.0512 27.7544" fill="#404C55"/>
          </symbol>
          <symbol id="ar" viewBox="0 0 9 420">
            <path d="M4.14643 319.354C4.34169 319.549 4.65828 319.549 4.85354 319.354L8.03552 316.172C8.23078 315.976 8.23078 315.66 8.03552 315.464C7.84026 315.269 7.52368 315.269 7.32841 315.464L4.49999 318.293L1.67156 315.464C1.4763 315.269 1.15971 315.269 0.964452 315.464C0.76919 315.66 0.76919 315.976 0.964452 316.172L4.14643 319.354ZM4 -2.18557e-08L3.99999 319L4.99999 319L5 2.18557e-08L4 -2.18557e-08Z" fill="white"/>
          </symbol>
          <symbol id="lines" viewBox="0 0 183 3" fill="white">
            <path d="M1 1H89" stroke="white" stroke-width="2" stroke-linecap="round"/>
<path d="M104.5 1.5H137.5" stroke="white" stroke-width="2" stroke-linecap="round"/>
<path d="M148.5 1.5H181.5" stroke="white" stroke-width="2" stroke-linecap="round"/>
          </symbol>
                  <symbol id="exit" viewBox="0 0 11 11">
            <path d="M11 1.10786L9.89214 0L5.5 4.39214L1.10786 0L0 1.10786L4.39214 5.5L0 9.89214L1.10786 11L5.5 6.60786L9.89214 11L11 9.89214L6.60786 5.5L11 1.10786Z"/>
        </symbol>
                <symbol id="man" viewBox="0 0 18 18">
            <path d="M9 9C10.6575 9 12 7.6575 12 6C12 4.3425 10.6575 3 9 3C7.3425 3 6 4.3425 6 6C6 7.6575 7.3425 9 9 9ZM9 10.5C6.9975 10.5 3 11.505 3 13.5V14.25C3 14.6625 3.3375 15 3.75 15H14.25C14.6625 15 15 14.6625 15 14.25V13.5C15 11.505 11.0025 10.5 9 10.5Z"/>
        </symbol>
        <symbol id="telephone" viewBox="0 0 18 18">
            <path d="M13.996 11.1226L12.1579 10.9127C11.7164 10.8621 11.2822 11.0141 10.971 11.3252L9.63945 12.6568C7.59144 11.6147 5.91251 9.94301 4.87041 7.88775L6.20922 6.54894C6.5204 6.23775 6.67237 5.80355 6.62171 5.3621L6.41185 3.53842C6.325 2.8075 5.70988 2.2575 4.97173 2.2575H3.71976C2.902 2.2575 2.22175 2.93776 2.2724 3.75552C2.65595 9.93577 7.59868 14.8713 13.7717 15.2548C14.5894 15.3055 15.2697 14.6252 15.2697 13.8075V12.5555C15.2769 11.8246 14.7269 11.2095 13.996 11.1226Z"/>
        </symbol>
        <symbol id="email" viewBox="0 0 18 18">
            <path d="M15 3H3C2.175 3 1.5075 3.675 1.5075 4.5L1.5 13.5C1.5 14.325 2.175 15 3 15H15C15.825 15 16.5 14.325 16.5 13.5V4.5C16.5 3.675 15.825 3 15 3ZM14.7 6.1875L9.3975 9.5025C9.1575 9.6525 8.8425 9.6525 8.6025 9.5025L3.3 6.1875C3.1125 6.0675 3 5.865 3 5.6475C3 5.145 3.5475 4.845 3.975 5.1075L9 8.25L14.025 5.1075C14.4525 4.845 15 5.145 15 5.6475C15 5.865 14.8875 6.0675 14.7 6.1875Z"/>
        </symbol>
    </defs>
</svg>