<svg width="103" height="28" viewBox="0 0 103 28" fill="none" xmlns="http://www.w3.org/2000/svg">
<g id="Logo">
<g id="Group">
<g id="Group_2">
<path id="Vector" d="M32.1313 10.635C32.6241 9.72937 33.2967 9.03014 34.169 8.53735C35.0347 8.0379 36.027 7.7915 37.1524 7.7915C38.5908 7.7915 39.7895 8.15111 40.7285 8.87032C41.6741 9.58953 42.3067 10.6017 42.6264 11.9003H39.4565C39.2901 11.3942 39.0037 11.0013 38.6042 10.715C38.2046 10.4286 37.7118 10.2821 37.1258 10.2821C36.2867 10.2821 35.6208 10.5884 35.1346 11.1944C34.6418 11.8004 34.4021 12.6661 34.4021 13.7849C34.4021 14.8904 34.6485 15.7494 35.1346 16.3554C35.6274 16.9614 36.2867 17.2677 37.1258 17.2677C38.3178 17.2677 39.0903 16.735 39.4565 15.6695H42.6264C42.3067 16.9281 41.6675 17.927 40.7152 18.6729C39.7629 19.4121 38.5775 19.785 37.1458 19.785C36.027 19.785 35.0347 19.5386 34.1624 19.0391C33.2967 18.5397 32.6174 17.8404 32.1246 16.9414C31.6318 16.0358 31.3921 14.9836 31.3921 13.7849C31.3987 12.5862 31.6385 11.5341 32.1313 10.635Z" fill="white"/>
<path id="Vector_2" d="M49.206 8.33786C49.812 7.99157 50.5112 7.81177 51.297 7.81177V10.895H50.5179C49.5922 10.895 48.8997 11.1148 48.4268 11.5477C47.9607 11.9805 47.7209 12.7397 47.7209 13.8118V19.6055H44.7842V7.97825H47.7209V9.78293C48.1005 9.17028 48.5933 8.68414 49.206 8.33786Z" fill="white"/>
<path id="Vector_3" d="M63.9897 14.6705H55.4924C55.5589 15.5096 55.8586 16.1688 56.3714 16.6417C56.8908 17.1145 57.5235 17.3542 58.2826 17.3542C59.3748 17.3542 60.1472 16.8881 60.6134 15.9491H63.7832C63.4503 17.0679 62.8043 17.9868 61.852 18.7061C60.8997 19.4253 59.7344 19.7849 58.3492 19.7849C57.2304 19.7849 56.2249 19.5385 55.3392 19.039C54.4535 18.5396 53.7609 17.8403 53.2615 16.928C52.762 16.0157 52.5156 14.9702 52.5156 13.7781C52.5156 12.5728 52.762 11.5206 53.2482 10.6083C53.7409 9.69597 54.4202 8.99674 55.3059 8.5106C56.1849 8.01781 57.2038 7.77808 58.3492 7.77808C59.4547 7.77808 60.4469 8.01781 61.3193 8.49063C62.1917 8.96344 62.8709 9.64269 63.357 10.5151C63.8365 11.3874 64.0829 12.393 64.0829 13.5251C64.0696 13.9579 64.0429 14.3375 63.9897 14.6705ZM61.0329 12.6993C61.0196 11.9468 60.7466 11.3408 60.2138 10.8813C59.6811 10.4285 59.0285 10.2021 58.2626 10.2021C57.5368 10.2021 56.9241 10.4218 56.4247 10.8614C55.9252 11.3009 55.6255 11.9135 55.5123 12.6993H61.0329Z" fill="white"/>
<path id="Vector_4" d="M66.161 10.6217C66.6271 9.70939 67.2664 9.01016 68.0722 8.52403C68.878 8.03124 69.777 7.7915 70.7692 7.7915C71.6349 7.7915 72.3941 7.96465 73.0467 8.31759C73.6993 8.67054 74.2188 9.11005 74.6117 9.6428V7.98463H77.5684V19.6118H74.6117V17.9137C74.2321 18.4598 73.7127 18.9126 73.0467 19.2655C72.3808 19.6252 71.615 19.7983 70.7493 19.7983C69.7703 19.7983 68.878 19.5452 68.0722 19.0458C67.2664 18.5397 66.6338 17.8338 66.161 16.9148C65.6948 15.9958 65.4551 14.9436 65.4551 13.7583C65.4551 12.5729 65.6948 11.5341 66.161 10.6217ZM74.1855 11.9536C73.9058 11.4408 73.5262 11.0479 73.0534 10.7815C72.5806 10.5085 72.0678 10.3753 71.5217 10.3753C70.9757 10.3753 70.4696 10.5085 70.0101 10.7749C69.5506 11.0413 69.171 11.4275 68.8846 11.9403C68.5983 12.453 68.4518 13.059 68.4518 13.7583C68.4518 14.4575 68.5983 15.0702 68.8846 15.5963C69.171 16.1223 69.5506 16.5219 70.0167 16.8016C70.4829 17.0813 70.9823 17.2211 71.5151 17.2211C72.0611 17.2211 72.5739 17.0879 73.0467 16.8149C73.5195 16.5419 73.8991 16.149 74.1788 15.6429C74.4585 15.1301 74.5984 14.5174 74.5984 13.8049C74.605 13.079 74.4652 12.4664 74.1855 11.9536Z" fill="white"/>
<path id="Vector_5" d="M82.3292 19.2789C81.5767 18.9392 80.9774 18.4731 80.5379 17.8804C80.0984 17.2944 79.8586 16.6418 79.812 15.9292H82.7688C82.822 16.3754 83.0418 16.7483 83.428 17.0413C83.8143 17.3343 84.2937 17.4808 84.8665 17.4808C85.4258 17.4808 85.8653 17.3676 86.1783 17.1479C86.4913 16.9215 86.6512 16.6351 86.6512 16.2888C86.6512 15.9092 86.458 15.6295 86.0718 15.4364C85.6855 15.25 85.0729 15.0435 84.2338 14.8171C83.3681 14.604 82.6556 14.3909 82.1028 14.1645C81.5501 13.9381 81.0773 13.5984 80.6777 13.139C80.2782 12.6795 80.0784 12.0535 80.0784 11.2743C80.0784 10.6284 80.2648 10.0424 80.6378 9.50961C81.0107 8.97687 81.5434 8.55733 82.236 8.251C82.9286 7.94467 83.741 7.7915 84.68 7.7915C86.0651 7.7915 87.1706 8.13779 87.9963 8.83036C88.8221 9.52293 89.2749 10.4552 89.3615 11.6339H86.5513C86.5113 11.1744 86.3182 10.8082 85.9719 10.5352C85.6256 10.2621 85.1728 10.1289 84.6001 10.1289C84.0673 10.1289 83.6611 10.2288 83.3748 10.4219C83.0884 10.6151 82.9419 10.8881 82.9419 11.241C82.9419 11.6339 83.135 11.9336 83.5279 12.1334C83.9208 12.3332 84.5268 12.5396 85.3526 12.7527C86.1917 12.9658 86.8842 13.1789 87.4303 13.4053C87.9764 13.6317 88.4492 13.978 88.8487 14.4442C89.2483 14.9103 89.4547 15.5297 89.4681 16.3021C89.4681 16.9747 89.2816 17.5741 88.9087 18.1068C88.5357 18.6396 88.003 19.0524 87.3104 19.3588C86.6179 19.6584 85.8121 19.8116 84.8864 19.8116C83.9408 19.7916 83.0884 19.6251 82.3292 19.2789Z" fill="white"/>
<path id="Vector_6" d="M103 7.97803L95.8015 25.1059H92.6716L95.1889 19.3122L90.5273 7.97803H93.8237L96.8271 16.1024L99.8704 7.97803H103Z" fill="white"/>
</g>
</g>
<path id="Vector_7" d="M14.7438 0H4.50837C2.01778 0 0 2.01778 0 4.50837V14.7371C0 21.7228 5.6671 27.3899 12.6527 27.3899H22.8815C25.3721 27.3899 27.3899 25.3721 27.3899 22.8815V12.6527C27.3899 5.6671 21.7294 0 14.7438 0ZM10.7948 17.2677C11.5873 18.1534 12.6194 18.5995 13.898 18.5995C14.6905 18.5995 15.3964 18.4131 16.0157 18.0402C16.635 17.6672 17.1212 17.1278 17.4541 16.4153H22.0091C21.523 18.2533 20.564 19.705 19.1256 20.7638C17.6872 21.8227 15.9624 22.3487 13.9447 22.3487C12.2998 22.3487 10.8214 21.9825 9.52285 21.2433C8.22428 20.5108 7.21207 19.4852 6.47954 18.18C5.75367 16.8748 5.38741 15.3764 5.38741 13.6983C5.38741 12.0201 5.75367 10.5218 6.47954 9.20321C7.20541 7.88466 8.21762 6.85912 9.52285 6.12659C10.8214 5.39407 12.2998 5.02114 13.9447 5.02114C15.9624 5.02114 17.6939 5.55389 19.1256 6.61939C20.564 7.68488 21.523 9.13662 22.0091 10.9813H17.4541C17.1145 10.2687 16.635 9.7293 16.0157 9.35637C15.3964 8.98345 14.6838 8.79699 13.898 8.79699C12.6194 8.79699 11.5873 9.24317 10.7948 10.1289C10.0023 11.0146 9.60943 12.2066 9.60943 13.6916C9.60277 15.1966 10.0023 16.382 10.7948 17.2677Z" fill="url(#paint0_linear_33783_30)"/>
</g>
<defs>
<linearGradient id="paint0_linear_33783_30" x1="2.46237" y1="1.03364" x2="28.8258" y2="30.7476" gradientUnits="userSpaceOnUse">
<stop stop-color="#11BBF6"/>
<stop offset="1" stop-color="#0215FE"/>
</linearGradient>
</defs>
</svg>
